<svg xmlns="http://www.w3.org/2000/svg" width="256" height="256" viewBox="0 0 100 100">
  <rect width="100" height="100" rx="20" fill="#62ad98"/>
  <path transform="translate(19.7375, 82.895)" fill="#fff" d="M36.72-31.59L36.72-31.59Q27.99-31.59 28.17-36L28.17-36Q28.17-40.14 36.54-40.14L36.54-40.14Q38.52-40.14 40.32-39.69L40.32-39.69Q43.29-42.66 43.29-48.69L43.29-48.69Q43.29-59.13 29.34-59.13L29.34-59.13Q22.05-59.13 15.48-55.98L15.48-55.98Q13.05-54.81 11.12-53.82Q9.18-52.83 7.56-52.83Q5.94-52.83 5.94-53.82L5.94-53.82Q5.94-54.99 7.74-57.28Q9.54-59.58 12.78-61.92L12.78-61.92Q21.06-67.68 31.59-67.77L31.59-67.77Q45.36-67.77 51.84-62.28L51.84-62.28Q57.42-57.69 57.42-49.77L57.42-49.77Q57.42-40.59 48.42-35.73L48.42-35.73Q57.06-30.78 58.68-23.58L58.68-23.58Q59.22-21.06 59.22-16.92Q59.22-12.78 56.97-9.09Q54.72-5.40 50.94-2.88L50.94-2.88Q43.38 1.98 31.59 1.98L31.59 1.98Q23.22 1.98 12.96-1.80L12.96-1.80Q6.12-4.32 2.88-7.83L2.88-7.83Q1.26-9.54 1.30-11.25Q1.35-12.96 3.01-12.96Q4.68-12.96 9.36-11.79L9.36-11.79L9.36-11.88Q9.36-18.90 10.98-26.28L10.98-26.28Q13.77-39.15 17.46-46.44L17.46-46.44Q21.42-54.54 25.65-54.54L25.65-54.54Q26.82-54.54 26.82-50.49Q26.82-46.44 26.05-42.21Q25.29-37.98 24.43-33.88Q23.58-29.79 22.81-26.46Q22.05-23.13 22.05-21.69L22.05-21.69L21.15-8.10Q26.46-6.66 30.15-6.66Q33.84-6.66 36.81-7.92L36.81-7.92Q44.28-11.07 44.28-18.90L44.28-18.90Q44.28-23.58 43.38-26.64Q42.48-29.70 40.14-32.04L40.14-32.04Q38.07-31.59 36.72-31.59Z"/>
</svg>
