<svg xmlns="http://www.w3.org/2000/svg" width="256" height="256" viewBox="0 0 100 100">
  <rect width="100" height="100" rx="20" fill="#7a75ad"/>
  <path transform="translate(18.995, 83.66)" fill="#fff" d="M47.88-14.58L47.88-14.58Q50.22-16.29 52.11-18.77Q54-21.24 55.30-21.24Q56.61-21.24 56.61-17.32Q56.61-13.41 54.41-9.95Q52.20-6.48 48.60-4.14L48.60-4.14Q41.22 0.72 31.14 0.72L31.14 0.72Q18.90 0.72 12.15-5.40Q5.40-11.52 5.40-22.41L5.40-22.41Q5.40-35.82 11.88-47.88L11.88-47.88Q14.04-51.84 16.74-55.17L16.74-55.17Q14.67-57.60 13.46-60.25Q12.24-62.91 12.24-64.26L12.24-64.26Q12.24-66.69 14.04-66.69L14.04-66.69Q15.30-66.60 16.92-64.98L16.92-64.98L19.71-62.28Q20.79-61.20 21.96-60.48L21.96-60.48Q30.87-68.04 41.17-68.04Q51.48-68.04 54.54-62.28L54.54-62.28Q55.62-60.12 55.62-56.97L55.62-56.97Q55.62-52.20 51.48-48.96Q47.34-45.72 40.37-45.72Q33.39-45.72 25.92-48.60L25.92-48.60Q19.53-37.71 19.53-25.83L19.53-25.83Q19.53-9.36 32.67-9.36L32.67-9.36Q40.77-9.36 47.88-14.58ZM30.24-54.18L30.24-54.18Q34.83-52.65 40.23-52.65Q45.63-52.65 45.63-55.62L45.63-55.62Q45.63-59.13 41.22-59.13L41.22-59.13Q35.19-59.13 30.24-54.18Z"/>
</svg>
